<svg width="52" height="43" viewBox="0 0 52 43" fill="none" xmlns="http://www.w3.org/2000/svg">
<path opacity="0.1" fill-rule="evenodd" clip-rule="evenodd" d="M19.8957 0.119988C14.8735 0.664111 10.0418 2.91444 6.51684 6.35108C2.8435 9.93246 0.703017 14.2894 0.114739 19.3826C0.046913 19.97 0.00146907 24.8758 0.000903851 31.6799L0 43H11.1348H22.2696V32.25V21.5H14.8481H7.42673L7.49489 20.4413C7.943 13.4803 13.9514 7.70134 21.2585 7.20304L22.2696 7.1342V3.56705V0L21.5065 0.0141159C21.0869 0.0218255 20.362 0.0694953 19.8957 0.119988ZM49.2304 0.168851C46.9707 0.433258 44.2283 1.2343 42.1377 2.24045C35.304 5.5293 30.7225 11.8395 29.8488 19.1662C29.7761 19.7755 29.7319 24.4397 29.7313 31.5713L29.7304 43H40.8652H52V32.25V21.5H44.5957H37.1913L37.1918 20.8213C37.1924 19.8912 37.4688 18.3323 37.8256 17.2476C39.684 11.5966 44.9029 7.61806 51.0026 7.20217L52 7.1342V3.56705V0L51.237 0.0116189C50.8173 0.0180255 49.9143 0.0888233 49.2304 0.168851Z" fill="url(#paint0_radial_53_1711)"/>
<defs>
<radialGradient id="paint0_radial_53_1711" cx="0" cy="0" r="1" gradientUnits="userSpaceOnUse" gradientTransform="translate(23.0066 19.8107) rotate(111.723) scale(21.4904 33.9066)">
<stop stop-color="#6F6F6F"/>
<stop offset="1" stop-color="#4E4E4E"/>
</radialGradient>
</defs>
</svg>
